<svg xmlns="http://www.w3.org/2000/svg" xmlns:xlink="http://www.w3.org/1999/xlink" version="1.1" width="1000pt" height="624.062pt" viewBox="0 0 1000 624.062">
<defs>
<clipPath id="clip_2">
<path transform="matrix(1,0,0,-1,0,624.062)" d="M0 624.062H1000V0H0Z"/>
</clipPath>
<clipPath id="clip_3">
<path transform="matrix(1,0,0,-1,0,624.062)" d="M0 624.062H1000V0H0Z"/>
</clipPath>
</defs>
<g id="layer_1" data-name="">
</g>
<g id="layer_1" data-name="">
</g>
<g id="layer_1" data-name="">
<g clip-path="url(#clip_2)">
<path transform="matrix(1,0,0,-1,405.6885,369.5512)" d="M0 0C.227 19.723-3.91 33.211-12.412 40.466-15.813 43.527-19.951 45.057-24.823 45.057-29.699 45.057-33.724 44.148-36.896 42.337-40.07 40.523-42.877 38.086-45.313 35.024-47.752 31.966-49.791 28.48-51.434 24.568-53.078 20.658-54.408 16.662-55.43 12.582-56.449 8.271-57.188 4.022-57.64-.172L-34.346-1.19C-19.157-1.19-7.709-.795 0 0M-58.319-14.793C-58.094-30.436-55.26-42.396-49.818-50.67-43.926-59.512-35.594-63.933-24.823-63.933-14.962-63.933-7.766-59.06-3.229-49.31-.398-42.963 3.117-39.787 7.312-39.787 9.238-39.787 10.854-40.413 12.158-41.658 13.459-42.907 14.055-45.088 13.943-48.205 13.828-51.323 12.724-54.694 10.627-58.321 8.528-61.949 5.611-65.181 1.871-68.013-6.291-74.359-16.097-77.535-27.544-77.535-39.9-77.535-50.557-72.264-59.51-61.723-68.92-50.614-73.622-37.407-73.622-22.105-73.622-6.801-72.291 5.637-69.627 15.217-66.965 24.795-63.42 32.757-59 39.106-50.387 51.915-39.616 58.32-26.694 58.32-10.146 58.32 1.473 51.801 8.162 38.767 12.809 29.695 15.303 16.378 15.644-1.19 15.755-6.18 14.964-9.522 13.264-11.223 11.563-12.924 8.104-13.772 2.891-13.772Z"/>
<path transform="matrix(1,0,0,-1,405.6885,369.5512)" stroke-width="1" stroke-linecap="butt" stroke-miterlimit="10" stroke-linejoin="miter" fill="none" stroke="#1a1a1a" d="M0 0C.227 19.723-3.91 33.211-12.412 40.466-15.813 43.527-19.951 45.057-24.823 45.057-29.699 45.057-33.724 44.148-36.896 42.337-40.07 40.523-42.877 38.086-45.313 35.024-47.752 31.966-49.791 28.48-51.434 24.568-53.078 20.658-54.408 16.662-55.43 12.582-56.449 8.271-57.188 4.022-57.64-.172L-34.346-1.19C-19.157-1.19-7.709-.795 0 0ZM-58.319-14.793C-58.094-30.436-55.26-42.396-49.818-50.67-43.926-59.512-35.594-63.933-24.823-63.933-14.962-63.933-7.766-59.06-3.229-49.31-.398-42.963 3.117-39.787 7.312-39.787 9.238-39.787 10.854-40.413 12.158-41.658 13.459-42.907 14.055-45.088 13.943-48.205 13.828-51.323 12.724-54.694 10.627-58.321 8.528-61.949 5.611-65.181 1.871-68.013-6.291-74.359-16.097-77.535-27.544-77.535-39.9-77.535-50.557-72.264-59.51-61.723-68.92-50.614-73.622-37.407-73.622-22.105-73.622-6.801-72.291 5.637-69.627 15.217-66.965 24.795-63.42 32.757-59 39.106-50.387 51.915-39.616 58.32-26.694 58.32-10.146 58.32 1.473 51.801 8.162 38.767 12.809 29.695 15.303 16.378 15.644-1.19 15.755-6.18 14.964-9.522 13.264-11.223 11.563-12.924 8.104-13.772 2.891-13.772L-58.319-14.793Z"/>
<path transform="matrix(1,0,0,-1,503.6445,328.5737)" d="M0 0C-3.738 2.72-8.134 4.079-13.177 4.079-18.221 4.079-22.812 2.689-26.948-.085-31.088-2.864-34.573-6.746-37.405-11.733-43.187-21.709-46.077-35.396-46.077-52.796-46.077-70.197-43.302-83.034-37.745-91.308-32.193-99.583-24.768-103.721-15.472-103.721-5.27-103.721 2.892-97.882 9.012-86.206 14.455-75.779 17.175-62.97 17.175-47.778 17.175-24.431 11.449-8.503 0 0M-15.642-118.172C-22.103-118.284-28.138-116.952-33.749-114.177-39.36-111.399-44.207-107.063-48.288-101.168-57.243-88.7-61.72-70.961-61.72-47.948-61.72-27.319-56.902-11.053-47.267 .849-38.2 12.183-26.184 17.852-11.22 17.852 1.362 17.852 11.789 12.412 20.064 1.529 28.567-10.032 32.818-25.904 32.818-46.079 32.818-68.523 27.886-86.435 18.023-99.809 9.182-111.824-2.039-117.944-15.642-118.172"/>
<path transform="matrix(1,0,0,-1,503.6445,328.5737)" stroke-width="1" stroke-linecap="butt" stroke-miterlimit="10" stroke-linejoin="miter" fill="none" stroke="#1a1a1a" d="M0 0C-3.738 2.72-8.134 4.079-13.177 4.079-18.221 4.079-22.812 2.689-26.948-.085-31.088-2.864-34.573-6.746-37.405-11.733-43.187-21.709-46.077-35.396-46.077-52.796-46.077-70.197-43.302-83.034-37.745-91.308-32.193-99.583-24.768-103.721-15.472-103.721-5.27-103.721 2.892-97.882 9.012-86.206 14.455-75.779 17.175-62.97 17.175-47.778 17.175-24.431 11.449-8.503 0 0ZM-15.642-118.172C-22.103-118.284-28.138-116.952-33.749-114.177-39.36-111.399-44.207-107.063-48.288-101.168-57.243-88.7-61.72-70.961-61.72-47.948-61.72-27.319-56.902-11.053-47.267 .849-38.2 12.183-26.184 17.852-11.22 17.852 1.362 17.852 11.789 12.412 20.064 1.529 28.567-10.032 32.818-25.904 32.818-46.079 32.818-68.523 27.886-86.435 18.023-99.809 9.182-111.824-2.039-117.944-15.642-118.172Z"/>
<path transform="matrix(1,0,0,-1,660.2471,418.8608)" d="M0 0C.789 2.832 1.585 5.78 2.38 8.842 4.421 16.549 6.572 24.824 8.842 33.666 12.466 48.515 17.283 69.145 23.293 95.557 23.972 98.957 25.304 101.424 27.288 102.954 29.27 104.483 31.227 105.249 33.153 105.249 35.08 105.249 36.866 104.426 38.51 102.784 40.152 101.138 40.977 99.185 40.977 96.918 40.977 94.648 40.466 92.184 39.445 89.521 38.427 86.856 36.98 82.635 35.111 76.854 33.24 71.073 31.255 64.639 29.158 57.556 27.061 50.47 24.907 43.103 22.697 35.45 20.486 27.801 18.418 20.516 16.492 13.603 13.318 2.266 10.993-6.29 9.521-12.071 8.047-17.853 6.43-21.312 4.674-22.445 2.917-23.578 1.131-24.145-.682-24.145-4.875-24.145-7.539-22.163-8.673-18.193-11.167-8.785-14.795 6.062-19.556 26.354-25.448 51.52-30.039 70.562-33.327 83.485-34.121 80.31-34.914 76.854-35.708 73.114-37.863 64.271-40.243 54.749-42.849 44.547-49.425 17.794-54.864-2.72-59.171-17.004-59.852-18.932-61.101-20.574-62.913-21.934-64.727-23.294-66.54-23.975-68.352-23.975-72.548-23.975-75.153-22.048-76.176-18.193-79.124-8.221-81.844 1.274-84.335 10.286-86.83 19.298-89.324 28.11-91.819 36.728-96.919 54.181-102.473 70.845-108.48 86.717-109.613 90.003-110.182 93.119-110.182 96.067-110.182 99.015-109.416 101.28-107.885 102.869-106.355 104.454-104.568 105.249-102.528 105.249-97.089 105.249-93.548 102.216-91.902 96.152-90.26 90.088-88.615 83.681-86.972 76.938-85.33 70.193-83.686 63.277-82.041 56.195-80.399 49.11-78.753 42.082-77.111 35.111-75.469 28.14-73.795 21.536-72.094 15.304-70.282 8.273-68.581 2.322-66.994-2.551L-44.039 93.687C-42 101.28-38.088 105.08-32.307 105.08-26.301 105.08-22.444 101.053-20.743 93.007-12.243 49.479-5.329 18.475 0 0"/>
<path transform="matrix(1,0,0,-1,660.2471,418.8608)" stroke-width="1" stroke-linecap="butt" stroke-miterlimit="10" stroke-linejoin="miter" fill="none" stroke="#1a1a1a" d="M0 0C.789 2.832 1.585 5.78 2.38 8.842 4.421 16.549 6.572 24.824 8.842 33.666 12.466 48.515 17.283 69.145 23.293 95.557 23.972 98.957 25.304 101.424 27.288 102.954 29.27 104.483 31.227 105.249 33.153 105.249 35.08 105.249 36.866 104.426 38.51 102.784 40.152 101.138 40.977 99.185 40.977 96.918 40.977 94.648 40.466 92.184 39.445 89.521 38.427 86.856 36.98 82.635 35.111 76.854 33.24 71.073 31.255 64.639 29.158 57.556 27.061 50.47 24.907 43.103 22.697 35.45 20.486 27.801 18.418 20.516 16.492 13.603 13.318 2.266 10.993-6.29 9.521-12.071 8.047-17.853 6.43-21.312 4.674-22.445 2.917-23.578 1.131-24.145-.682-24.145-4.875-24.145-7.539-22.163-8.673-18.193-11.167-8.785-14.795 6.062-19.556 26.354-25.448 51.52-30.039 70.562-33.327 83.485-34.121 80.31-34.914 76.854-35.708 73.114-37.863 64.271-40.243 54.749-42.849 44.547-49.425 17.794-54.864-2.72-59.171-17.004-59.852-18.932-61.101-20.574-62.913-21.934-64.727-23.294-66.54-23.975-68.352-23.975-72.548-23.975-75.153-22.048-76.176-18.193-79.124-8.221-81.844 1.274-84.335 10.286-86.83 19.298-89.324 28.11-91.819 36.728-96.919 54.181-102.473 70.845-108.48 86.717-109.613 90.003-110.182 93.119-110.182 96.067-110.182 99.015-109.416 101.28-107.885 102.869-106.355 104.454-104.568 105.249-102.528 105.249-97.089 105.249-93.548 102.216-91.902 96.152-90.26 90.088-88.615 83.681-86.972 76.938-85.33 70.193-83.686 63.277-82.041 56.195-80.399 49.11-78.753 42.082-77.111 35.111-75.469 28.14-73.795 21.536-72.094 15.304-70.282 8.273-68.581 2.322-66.994-2.551L-44.039 93.687C-42 101.28-38.088 105.08-32.307 105.08-26.301 105.08-22.444 101.053-20.743 93.007-12.243 49.479-5.329 18.475 0 0Z"/>
<path transform="matrix(1,0,0,-1,734.0898,281.81593)" d="M0 0C0 3.967 .963 6.912 2.892 8.842 4.817 10.768 6.913 11.731 9.183 11.731 11.449 11.731 13.489 10.768 15.304 8.842 17.115 6.912 17.796 3.967 17.345 0 16.324-10.542 15.7-22.784 15.474-36.726 24.767-36.726 31.798-36.445 36.558-35.877 41.318-35.311 44.719-35.026 46.76-35.026 54.467-34.802 58.321-37.636 58.321-43.527 58.321-46.928 56.336-49.311 52.371-50.67 51.011-51.124 49.422-51.294 47.61-51.179 45.795-51.068 43.839-50.983 41.743-50.925 39.645-50.869 37.578-50.84 35.537-50.84H25.421C22.189-50.84 19.326-50.896 16.835-51.01H15.304V-51.519C15.304-98.448 15.984-124.917 17.345-130.923 18.704-136.933 20.177-141.239 21.766-143.847 24.598-148.382 28.227-150.647 32.646-150.647 39.789-150.647 44.604-147.135 47.099-140.104 48.119-134.438 51.011-131.604 55.771-131.604 57.471-131.604 58.973-132.312 60.277-133.729 61.578-135.148 62.231-137.215 62.231-139.935 62.231-142.656 61.383-145.605 59.682-148.776 57.981-151.952 55.712-154.728 52.88-157.107 46.646-162.32 39.674-164.93 31.967-164.93 17.911-164.93 8.218-157.167 2.892-141.636 .963-135.97 0-128.997 0-120.721V-52.199C-2.381-52.314-4.989-52.483-7.82-52.711-11.335-52.823-13.97-51.945-15.727-50.074-17.487-48.205-18.363-46.222-18.363-44.123-18.363-42.027-17.455-40.156-15.642-38.512-13.83-36.87-11.108-36.047-7.48-36.047L0-36.217Z"/>
<path transform="matrix(1,0,0,-1,734.0898,281.81593)" stroke-width="1" stroke-linecap="butt" stroke-miterlimit="10" stroke-linejoin="miter" fill="none" stroke="#1a1a1a" d="M0 0C0 3.967 .963 6.912 2.892 8.842 4.817 10.768 6.913 11.731 9.183 11.731 11.449 11.731 13.489 10.768 15.304 8.842 17.115 6.912 17.796 3.967 17.345 0 16.324-10.542 15.7-22.784 15.474-36.726 24.767-36.726 31.798-36.445 36.558-35.877 41.318-35.311 44.719-35.026 46.76-35.026 54.467-34.802 58.321-37.636 58.321-43.527 58.321-46.928 56.336-49.311 52.371-50.67 51.011-51.124 49.422-51.294 47.61-51.179 45.795-51.068 43.839-50.983 41.743-50.925 39.645-50.869 37.578-50.84 35.537-50.84H25.421C22.189-50.84 19.326-50.896 16.835-51.01H15.304V-51.519C15.304-98.448 15.984-124.917 17.345-130.923 18.704-136.933 20.177-141.239 21.766-143.847 24.598-148.382 28.227-150.647 32.646-150.647 39.789-150.647 44.604-147.135 47.099-140.104 48.119-134.438 51.011-131.604 55.771-131.604 57.471-131.604 58.973-132.312 60.277-133.729 61.578-135.148 62.231-137.215 62.231-139.935 62.231-142.656 61.383-145.605 59.682-148.776 57.981-151.952 55.712-154.728 52.88-157.107 46.646-162.32 39.674-164.93 31.967-164.93 17.911-164.93 8.218-157.167 2.892-141.636 .963-135.97 0-128.997 0-120.721V-52.199C-2.381-52.314-4.989-52.483-7.82-52.711-11.335-52.823-13.97-51.945-15.727-50.074-17.487-48.205-18.363-46.222-18.363-44.123-18.363-42.027-17.455-40.156-15.642-38.512-13.83-36.87-11.108-36.047-7.48-36.047L0-36.217V0Z"/>
<path transform="matrix(1,0,0,-1,885.1895,369.5512)" d="M0 0C.225 19.723-3.912 33.211-12.413 40.466-15.813 43.527-19.952 45.057-24.825 45.057-29.7 45.057-33.727 44.148-36.897 42.337-40.071 40.523-42.878 38.086-45.313 35.024-47.753 31.966-49.794 28.48-51.436 24.568-53.08 20.658-54.41 16.662-55.431 12.582-56.451 8.271-57.189 4.022-57.642-.172L-34.348-1.19C-19.158-1.19-7.712-.795 0 0M-58.322-14.793C-58.095-30.436-55.261-42.396-49.819-50.67-43.928-59.512-35.596-63.933-24.825-63.933-14.965-63.933-7.767-59.06-3.231-49.31-.399-42.963 3.116-39.787 7.311-39.787 9.236-39.787 10.851-40.413 12.155-41.658 13.458-42.907 14.052-45.088 13.941-48.205 13.827-51.323 12.722-54.694 10.626-58.321 8.528-61.949 5.61-65.181 1.869-68.013-6.292-74.359-16.098-77.535-27.547-77.535-39.901-77.535-50.558-72.264-59.512-61.723-68.923-50.614-73.624-37.407-73.624-22.105-73.624-6.801-72.294 5.637-69.629 15.217-66.967 24.795-63.422 32.757-59.001 39.106-50.388 51.915-39.617 58.32-26.696 58.32-10.146 58.32 1.47 51.801 8.161 38.767 12.807 29.695 15.302 16.378 15.641-1.19 15.754-6.18 14.962-9.522 13.261-11.223 11.562-12.924 8.102-13.772 2.89-13.772Z"/>
<path transform="matrix(1,0,0,-1,885.1895,369.5512)" stroke-width="1" stroke-linecap="butt" stroke-miterlimit="10" stroke-linejoin="miter" fill="none" stroke="#1a1a1a" d="M0 0C.225 19.723-3.912 33.211-12.413 40.466-15.813 43.527-19.952 45.057-24.825 45.057-29.7 45.057-33.727 44.148-36.897 42.337-40.071 40.523-42.878 38.086-45.313 35.024-47.753 31.966-49.794 28.48-51.436 24.568-53.08 20.658-54.41 16.662-55.431 12.582-56.451 8.271-57.189 4.022-57.642-.172L-34.348-1.19C-19.158-1.19-7.712-.795 0 0ZM-58.322-14.793C-58.095-30.436-55.261-42.396-49.819-50.67-43.928-59.512-35.596-63.933-24.825-63.933-14.965-63.933-7.767-59.06-3.231-49.31-.399-42.963 3.116-39.787 7.311-39.787 9.236-39.787 10.851-40.413 12.155-41.658 13.458-42.907 14.052-45.088 13.941-48.205 13.827-51.323 12.722-54.694 10.626-58.321 8.528-61.949 5.61-65.181 1.869-68.013-6.292-74.359-16.098-77.535-27.547-77.535-39.901-77.535-50.558-72.264-59.512-61.723-68.923-50.614-73.624-37.407-73.624-22.105-73.624-6.801-72.294 5.637-69.629 15.217-66.967 24.795-63.422 32.757-59.001 39.106-50.388 51.915-39.617 58.32-26.696 58.32-10.146 58.32 1.47 51.801 8.161 38.767 12.807 29.695 15.302 16.378 15.641-1.19 15.754-6.18 14.962-9.522 13.261-11.223 11.562-12.924 8.102-13.772 2.89-13.772L-58.322-14.793Z"/>
<path transform="matrix(1,0,0,-1,946.2383,220.60501)" d="M0 0C-.229-13.831-.426-28.793-.596-44.889-.766-60.986-.851-85.811-.851-119.361-.851-152.915-.398-183.973 .51-212.538 .622-216.279-.255-219.114-2.125-221.04-3.996-222.967-6.234-223.93-8.842-223.93-11.451-223.93-13.772-223.052-15.813-221.295-17.854-219.538-18.704-215.544-18.362-209.307-18.023-203.076-17.656-193.695-17.258-181.168-16.862-168.644-16.493-155.068-16.152-140.445-15.588-108.253-15.304-81.305-15.304-59.597-15.304-37.89-15.331-21.594-15.389-10.713-15.445 .17-15.53 10.202-15.644 19.384-15.872 36.612-16.437 52.369-17.343 66.651-17.571 70.278-16.833 73.083-15.132 75.068-13.433 77.05-11.281 78.043-8.672 78.043-6.064 78.043-3.655 77.05-1.444 75.068 .766 73.083 1.757 69.144 1.53 63.25 1.301 57.355 1.046 48.797 .766 37.577 .481 26.354 .226 13.828 0 0"/>
<path transform="matrix(1,0,0,-1,946.2383,220.60501)" stroke-width="1" stroke-linecap="butt" stroke-miterlimit="10" stroke-linejoin="miter" fill="none" stroke="#1a1a1a" d="M0 0C-.229-13.831-.426-28.793-.596-44.889-.766-60.986-.851-85.811-.851-119.361-.851-152.915-.398-183.973 .51-212.538 .622-216.279-.255-219.114-2.125-221.04-3.996-222.967-6.234-223.93-8.842-223.93-11.451-223.93-13.772-223.052-15.813-221.295-17.854-219.538-18.704-215.544-18.362-209.307-18.023-203.076-17.656-193.695-17.258-181.168-16.862-168.644-16.493-155.068-16.152-140.445-15.588-108.253-15.304-81.305-15.304-59.597-15.304-37.89-15.331-21.594-15.389-10.713-15.445 .17-15.53 10.202-15.644 19.384-15.872 36.612-16.437 52.369-17.343 66.651-17.571 70.278-16.833 73.083-15.132 75.068-13.433 77.05-11.281 78.043-8.672 78.043-6.064 78.043-3.655 77.05-1.444 75.068 .766 73.083 1.757 69.144 1.53 63.25 1.301 57.355 1.046 48.797 .766 37.577 .481 26.354 .226 13.828 0 0Z"/>
</g>
</g>
<g id="layer_1" data-name="">
<g clip-path="url(#clip_3)">
<path transform="matrix(1,0,0,-1,68.6572,258.8149)" d="M0 0C-.309-.611-.47-1.314-.604-1.994-1.596-7.001-2.138-12.07-2.639-17.143-2.871-19.504-3.002-21.875-3.15-24.245-3.405-28.285-3.686-32.325-3.867-36.369-4.059-40.623-3.775-44.895-4.271-49.142-4.261-50.279-4.26-51.417-4.263-52.555L1.943 3.771C1.288 2.518 .638 1.262 0 0" fill="#f3aa49"/>
<path transform="matrix(1,0,0,-1,172.8301,519.0425)" d="M0 0C-5.327 0-23.199 1.026-32.935 14.192-33.28 14.658-33.573 15.162-33.812 15.692-36.997 22.803-37.586 34.597-29.259 43.259-31.993 47.225-34.506 51.331-36.801 55.563-41.204 63.688-44.866 72.149-47.892 80.88-50.136 87.354-52.022 93.931-53.507 100.624-55.216 108.33-57.037 116.012-58.689 123.73-60.692 133.087-62.619 142.462-64.483 151.848-65.652 157.737-66.645 163.663-67.72 169.572-68.106 171.701-68.4 173.854-68.918 175.951-69.872 179.816-70.925 183.658-71.997 187.493-75.163 198.815-77.46 210.306-78.937 221.972-79.621 227.381-80.716 232.733-82.524 237.895-84.01 242.137-85.622 246.325-87.459 250.414L-103.909 101.113C-103.931 100.924-103.958 100.733-103.993 100.544-104.298 98.771-111.096 55.582-63.931 9.373-63.718 9.164-63.516 8.94-63.327 8.712-62.889 8.175-19.479-44.488 17.495-50.175 18.685-50.022 22.118-49.377 24.239-46.817 26.147-44.512 26.836-40.862 26.288-35.964 24.117-31.332 19.563-24.157 15.101-22.021 11.073-20.094 9.371-15.267 11.3-11.238 12.832-8.036 16.198-6.308 19.54-6.704 17.634-4.393 15.74-2.071 13.862 .263 9.627 .066 5.396-.016 1.188 .02 .927 .012 .524 0 0 0" fill="#f3aa49"/>
<path transform="matrix(1,0,0,-1,280.9248,142.3096)" d="M0 0C.047 4.829 .04 9.657 .317 14.487 .625 19.854 .851 25.226 1.187 30.593 1.52 35.89 1.669 41.198 1.911 46.792 1.742 50.279 1.537 54.043 1.385 57.81 1.219 61.937 .697 66.021-.015 70.083-1.227 77.002-3.23 83.666-6.437 89.945-7.368 91.768-8.544 93.381-9.989 94.837-10.49 95.342-11.008 95.789-11.539 96.191-10.826 95.129-10.346 93.904-10.2 92.581-10.2 92.581-5.847 53.071 0 0" fill="#f3aa49"/>
<path transform="matrix(1,0,0,-1,260.335,205.49362)" d="M0 0C.334-2.207-1.184-4.268-3.391-4.604L-37.626-9.793C-37.831-9.824-38.035-9.838-38.236-9.838-40.201-9.838-41.924-8.402-42.229-6.402-42.563-4.195-41.045-2.135-38.838-1.799L-4.603 3.391C-2.4 3.73-.336 2.205 0 0M8.67-13.682C8.896-15.902 7.279-17.889 5.06-18.113L-35.656-22.268C-35.795-22.283-35.935-22.289-36.072-22.289-38.119-22.289-39.876-20.74-40.088-18.658-40.314-16.437-38.697-14.451-36.477-14.227L4.238-10.072C6.458-9.813 8.443-11.461 8.67-13.682M-53.191 57.908C-53.925 52.925-54.297 47.917-54.588 42.901-54.629 42.192-54.646 41.483-54.655 40.774-50.467 44.913-44.716 47.473-38.376 47.473-25.596 47.473-15.199 37.076-15.199 24.297-15.199 22.064-17.009 20.254-19.241 20.254-21.474 20.254-23.283 22.064-23.283 24.297-23.283 32.619-30.054 39.389-38.376 39.389-46.699 39.389-53.469 32.619-53.469 24.297-53.469 24.043-53.499 23.796-53.544 23.556-53.359 21.931-53.173 20.306-52.975 18.683-52.654 16.05-52.301 13.421-51.93 10.795-51.266 6.087-50.258 1.444-49.133-3.171-47.346-10.513-45.016-17.682-42.115-24.663-40.771-27.896-39.109-30.964-37.433-34.031-34.982-38.513-32.243-42.793-29.17-46.838-26.085-45.09-23.152-43.035-20.388-40.64-18.771-39.239-17.312-37.657-15.788-36.151-15.391-35.758-15.055-35.3-14.636-34.934-13.022-33.52-10.79-33.479-9.279-34.806-7.792-36.112-7.562-38.342-8.779-40.137-9.196-40.751-9.71-41.303-10.211-41.854-14.261-46.315-18.885-50.025-24.004-53.067-20.646-56.865-17.261-60.64-13.636-64.195-12.092-65.709-10.682-67.359-9.227-68.961-6.184-72.31-3.99-76.173-2.201-80.311 .061-85.547 1.4-91.026 2.36-96.618 3.613-103.913 4.75-111.231 6.973-118.322 8.038-121.724 9.067-125.134 10.76-128.297 12.23-131.045 14.107-133.452 16.622-135.317 19.638-137.554 22.982-138.586 26.561-138.63 16.972-51.605 1.656 87.39-3.73 136.287L-44.197 92.176C-44.699 90.771-45.191 89.362-45.664 87.944-48.943 78.119-51.682 68.176-53.191 57.908" fill="#f3aa49"/>
<path transform="matrix(1,0,0,-1,258.3193,43.830995)" d="M0 0C-.043-.007-.085-.013-.127-.021-3.309-.626-6.239-2.094-8.707-4.223-11.406-6.55-13.919-9.087-15.903-12.088-18.451-15.94-20.745-19.934-22.625-24.158-22.653-24.221-22.684-24.283-22.713-24.345L-1.588-1.319C-1.113-.802-.574-.369 0 0" fill="#f3aa49"/>
<path transform="matrix(1,0,0,-1,284.0713,378.4995)" d="M0 0C-4.543-5.218-8.746-10.708-12.713-16.378-14.518-18.959-16.426-21.461-18.76-23.59-21.855-26.412-24.952-29.235-28.135-31.957-31.479-34.816-34.936-37.544-37.996-40.721-38.529-41.273-39.061-41.839-39.657-42.317-42.291-44.433-44.416-47.045-46.617-49.563-50.76-54.302-54.4-59.431-57.787-64.736-60.61-69.161-63.113-73.756-65.08-78.633-66.396-81.897-67.294-85.279-67.479-88.785-67.674-92.477-67.699-96.176-67.175-99.868-66.662-103.486-65.807-107.001-64.465-110.391-63.193-113.604-61.436-116.501-59.073-118.979-50.353-117.194-41.673-115.04-33.119-112.505-29.998-111.579-26.771-110.622-23.75-109.53-11.887-105.25-4.178-99.863 1.244-92.062 6.549-84.428 9.887-73.389 11.445-58.316 12.123-51.744 11.579-45.081 10.956-39.428 10.952-39.392 9.063-22.247 6.104 4.604 5.211 4.26 4.361 3.808 3.564 3.221 2.279 2.275 1.047 1.2 0 0" fill="#f3aa49"/>
<path transform="matrix(1,0,0,-1,315.9092,420.687)" d="M0 0C-.211 5.093-.271 10.196-.676 15.272-1.125 20.92-2.322 26.46-3.887 31.907-4.895 35.414-6.558 38.539-8.863 41.308-6.373 18.706-4.82 4.618-4.811 4.529-4.137-1.591-3.471-9.659-4.311-17.79-5.433-28.642-7.449-37.879-10.402-45.693-9.337-43.788-8.37-41.826-7.533-39.789-6.658-37.657-5.789-35.521-5.001-33.356-3.398-28.955-2.053-24.479-1.229-19.856-.48-15.646-.463-11.378-.215-7.13-.076-4.763-.189-2.381-.189-.006-.126-.004-.062-.001 0 0" fill="#f3aa49"/>
<path transform="matrix(1,0,0,-1,114.6777,225.67041)" d="M0 0C1.479-.257 2.933-.358 4.317-.102L-2.071 .55C-1.394 .319-.701 .122 0 0" fill="#f3aa49"/>
<path transform="matrix(1,0,0,-1,102.8369,205.49362)" d="M0 0C.334 2.205 2.39 3.729 4.603 3.391L38.836-1.799C41.043-2.135 42.563-4.195 42.227-6.402 41.924-8.402 40.2-9.838 38.235-9.838 38.034-9.838 37.83-9.824 37.625-9.793L3.391-4.604C1.184-4.268-.335-2.207 0 0M37.416 47.473C50.197 47.473 60.594 37.076 60.594 24.297 60.594 22.064 58.784 20.254 56.553 20.254 54.32 20.254 52.51 22.064 52.51 24.297 52.51 32.619 45.739 39.389 37.416 39.389 29.095 39.389 22.324 32.619 22.324 24.297 22.324 22.064 20.514 20.254 18.281 20.254 16.05 20.254 14.24 22.064 14.24 24.297 14.24 37.076 24.637 47.473 37.416 47.473M-4.419-9.395C-4.233-9.644-4.032-9.872-3.841-10.113L36.475-14.227C37.624-14.343 38.605-14.937 39.259-15.786 41.813-14.746 44.23-13.376 46.529-11.742 50.14-9.174 53.299-6.124 56.014-2.625 59.928 2.418 62.804 7.95 63.793 14.331 64.643 19.813 64.071 25.063 61.029 29.857 59.232 32.69 57.545 35.584 56.137 38.633 54.531 42.108 52.248 45.066 49.472 47.688 45.773 51.181 41.471 53.515 36.504 54.575 34.596 54.982 32.652 55.23 30.719 55.51 27.243 56.012 23.732 56.007 20.266 55.659 13.5 54.98 7.727 52.031 2.751 47.437-1.453 43.555-4.477 38.905-6.785 33.804L-10.078 3.923C-9.206-.037-7.64-3.8-5.652-7.451-5.287-8.124-4.875-8.78-4.419-9.395" fill="#f3aa49"/>
<path transform="matrix(1,0,0,-1,93.2578,49.532716)" d="M0 0C-1.441-.17-2.836-.531-4.179-1.193-6.003-2.093-7.693-3.19-9.169-4.611-12.968-8.272-15.163-12.805-16.277-17.883-17.103-21.648-17.233-25.491-17.206-30.046-17.497-35.572-16.343-41.566-14.148-47.378-12.741-51.107-11.104-54.744-9.106-58.186-8.39-59.42-7.624-60.625-6.824-61.805L-.036-.196C-.028-.129-.009-.066 0 0" fill="#f3aa49"/>
<path transform="matrix(1,0,0,-1,116.1357,127.022)" d="M0 0C4.539 .959 8.74 2.944 12.508 5.678 17.503 9.302 20.939 14.159 23.201 19.866 23.499 20.617 23.728 21.387 23.91 22.167L-8.793 57.815-14.89 2.483C-13.668 1.855-12.426 1.276-11.139 .782-7.505-.616-3.711-.785 0 0" fill="#f3aa49"/>
<path transform="matrix(1,0,0,-1,269.3857,46.11859)" d="M0 0C-.986 1.468-2.433 2.614-4.182 3.187-6.528 3.957-9.05 3.587-11.066 2.288-7.008 3.034-3.234 2.447 0 0" fill="#1a1a1a"/>
<path transform="matrix(1,0,0,-1,311.0986,416.1577)" d="M0 0C-.01 .089-1.562 14.177-4.053 36.778-10.106 91.728-21.706 197.004-30.174 273.848-36.021 326.919-40.374 366.429-40.374 366.429-40.52 367.752-41 368.977-41.713 370.039-44.947 372.486-48.721 373.073-52.779 372.327-53.354 371.958-53.893 371.525-54.367 371.008L-75.492 347.981-129.125 289.519-203.883 371.008C-206.026 373.344-209.34 374.215-212.355 373.226-215.305 372.26-217.426 369.689-217.841 366.625-217.85 366.559-217.869 366.496-217.877 366.429L-224.665 304.82-240.498 161.113-246.704 104.788-258.224 .231C-259.028-4.719-265.461-53.943-213.827-104.754-209.385-110.128-164.314-163.48-122.145-169.198-121.785-169.247-121.422-169.271-121.059-169.271-121.013-169.271-120.967-169.271-120.921-169.269-119.73-169.249-109.085-168.825-101.797-160.274-96.553-154.125-94.641-145.786-96.111-135.489-96.211-134.795-96.4-134.116-96.675-133.471-97.429-131.696-104.382-115.974-116.188-110.323-117.012-109.927-117.869-109.691-118.729-109.589-122.07-109.192-125.437-110.921-126.969-114.123-128.897-118.151-127.195-122.979-123.168-124.905-118.705-127.042-114.151-134.217-111.98-138.849-111.433-143.747-112.121-147.396-114.029-149.702-116.15-152.262-119.584-152.907-120.773-153.06-157.748-147.373-201.157-94.71-201.596-94.173-201.784-93.944-201.986-93.721-202.199-93.512-249.364-47.303-242.566-4.114-242.262-2.341-242.227-2.151-242.199-1.961-242.178-1.771L-225.728 147.529-218.34 214.587-215.047 244.468-209.853 291.619-203.756 346.951-171.053 311.303-135.141 272.159C-133.516 270.386-131.283 269.513-129.054 269.548-126.873 269.552-124.699 270.425-123.107 272.159L-94.961 302.84-54.494 346.951C-49.107 298.054-33.792 159.059-24.203 72.034-23.012 61.217-21.908 51.2-20.923 42.263-17.964 15.411-16.075-1.733-16.071-1.77-15.448-7.423-14.904-14.086-15.582-20.658-17.141-35.73-20.479-46.77-25.783-54.403-31.205-62.205-38.914-67.592-50.777-71.872-53.798-72.964-57.025-73.921-60.146-74.847-68.7-77.382-77.38-79.536-86.101-81.321-92.695-82.671-99.313-83.814-105.922-84.719-116.27-86.132-126.771-86.817-137.13-86.694-137.283-86.692-137.473-86.696-137.624-86.704-141.47-86.902-152.301-85.965-157.602-79.832-158.67-76.658-158.959-71.634-152.267-68.288-148.273-66.291-146.656-61.436-148.652-57.441-150.648-53.448-155.504-51.828-159.498-53.825-162.805-55.479-165.441-57.456-167.527-59.626-175.854-68.288-175.266-80.082-172.08-87.192-171.842-87.723-171.549-88.227-171.203-88.692-161.468-101.858-143.596-102.885-138.269-102.885-137.744-102.885-137.342-102.873-137.08-102.865-132.872-102.9-128.642-102.818-124.406-102.622-117.502-102.302-110.585-101.675-103.732-100.737-87.568-98.528-71.359-95.033-55.549-90.348-52.206-89.355-48.75-88.331-45.289-87.082-30.279-81.666-19.863-74.215-12.507-63.633-9.797-59.732-7.5-55.271-5.592-50.223-2.639-42.408-.622-33.171 .5-22.319 1.34-14.188 .674-6.12 0 0" fill="#1a1a1a"/>
<path transform="matrix(1,0,0,-1,221.959,158.02103)" d="M0 0C-6.34 0-12.091-2.56-16.279-6.698-20.535-10.902-23.178-16.735-23.178-23.176-23.178-25.408-21.368-27.219-19.136-27.219-17.157-27.219-15.517-25.795-15.168-23.917-15.123-23.676-15.093-23.43-15.093-23.176-15.093-14.854-8.323-8.084 0-8.084 8.322-8.084 15.093-14.854 15.093-23.176 15.093-25.408 16.902-27.219 19.135-27.219 21.367-27.219 23.177-25.408 23.177-23.176 23.177-10.396 12.78 0 0 0" fill="#1a1a1a"/>
<path transform="matrix(1,0,0,-1,121.1182,185.23972)" d="M0 0C2.232 0 4.043 1.811 4.043 4.043 4.043 12.365 10.813 19.135 19.135 19.135 27.458 19.135 34.229 12.365 34.229 4.043 34.229 1.811 36.039 0 38.271 0 40.503 0 42.313 1.811 42.313 4.043 42.313 16.822 31.916 27.219 19.135 27.219 6.355 27.219-4.041 16.822-4.041 4.043-4.041 1.811-2.231 0 0 0" fill="#1a1a1a"/>
<path transform="matrix(1,0,0,-1,218.1064,211.89603)" d="M0 0C.305-2 2.027-3.436 3.992-3.436 4.193-3.436 4.397-3.422 4.603-3.391L38.838 1.799C41.045 2.135 42.563 4.195 42.229 6.402 41.893 8.607 39.828 10.133 37.626 9.793L3.391 4.604C1.184 4.268-.334 2.207 0 0" fill="#1a1a1a"/>
<path transform="matrix(1,0,0,-1,220.2471,224.15183)" d="M0 0C.212-2.082 1.969-3.631 4.016-3.631 4.153-3.631 4.293-3.625 4.432-3.609L45.147 .545C47.367 .77 48.984 2.756 48.758 4.977 48.531 7.197 46.546 8.846 44.326 8.586L3.611 4.432C1.391 4.207-.227 2.221 0 0" fill="#1a1a1a"/>
<path transform="matrix(1,0,0,-1,106.2275,210.0972)" d="M0 0 34.234-5.189C34.439-5.221 34.644-5.234 34.845-5.234 36.81-5.234 38.533-3.799 38.836-1.799 39.172 .408 37.652 2.469 35.445 2.805L1.212 7.994C-1.001 8.332-3.057 6.809-3.391 4.604-3.726 2.396-2.207 .336 0 0" fill="#1a1a1a"/>
<path transform="matrix(1,0,0,-1,142.0957,221.27982)" d="M0 0C-.653 .849-1.635 1.443-2.784 1.56L-43.1 5.673-43.497 5.714C-45.737 5.974-47.703 4.323-47.929 2.104-48.155-.116-46.539-2.103-44.318-2.327L-29.489-3.84-23.101-4.492-3.604-6.481C-3.465-6.497-3.327-6.503-3.189-6.503-1.142-6.503 .614-4.952 .827-2.872 .937-1.802 .609-.791 0 0" fill="#1a1a1a"/>
<path transform="matrix(1,0,0,-1,231.165,252.332)" d="M0 0C-5.195-2.946-10.821-5.021-16.802-6.374-21.508-7.438-26.227-7.5-30.968-6.702-33.374-6.297-35.706-5.621-37.826-4.394-42.977-1.413-45.901 2.928-45.87 9.034-45.854 12.203-45.869 15.373-45.868 18.542-45.867 22.085-45.81 25.628-45.889 29.169-45.924 30.709-45.453 31.876-44.246 32.811-43.143 33.666-42.09 34.587-41.002 35.464-39.044 37.043-36.996 38.521-35.137 40.208-33.416 41.769-31.815 43.48-30.312 45.253-29.219 46.542-29.547 48.207-30.978 49.114-31.743 49.599-32.658 50.005-33.546 50.109-36.134 50.414-38.74 50.685-41.343 50.721-46.934 50.798-52.527 50.779-58.119 50.677-60.535 50.633-62.947 50.3-65.359 50.066-66.006 50.004-66.658 49.883-67.277 49.69-68.905 49.183-69.621 47.706-68.868 46.158-68.475 45.348-67.813 44.635-67.165 43.987-63.404 40.229-59.539 36.583-55.365 33.284-54.233 32.39-53.785 31.385-53.797 29.937-53.858 22.76-53.836 15.581-53.824 8.403-53.816 4.002-55.706 .492-58.895-2.381-61.014-4.291-63.556-5.453-66.295-6.171-70.679-7.321-75.147-7.646-79.609-6.925-92.528-4.835-103.693 .693-112.696 10.331-113.205 10.875-113.676 11.463-114.232 11.954-115.739 13.282-117.873 13.353-119.369 12.174-120.967 10.916-121.335 8.727-120.152 6.902-119.599 6.049-118.89 5.287-118.188 4.542-108.59-5.646-96.758-11.742-83.111-14.425-77.85-15.46-72.533-15.41-67.254-14.502-60.813-13.395-55.181-10.74-50.924-5.592-50.691-5.311-50.39-5.086-49.873-4.605-49.303-5.117-48.853-5.435-48.508-5.842-44.873-10.134-40.197-12.678-34.803-13.99-29.299-15.329-23.725-15.487-18.141-14.676-11.348-13.689-4.918-11.497 1.201-8.416 2.558-7.733 3.873-6.997 5.166-6.229 4.823-5.841 4.479-5.455 4.137-5.067 2.689-3.427 1.317-1.733 0 0" fill="#1a1a1a"/>
<path transform="matrix(1,0,0,-1,250.124,247.34763)" d="M0 0C.501 .551 1.015 1.103 1.432 1.717 2.648 3.512 2.419 5.742 .932 7.048-.579 8.375-2.812 8.334-4.425 6.92-4.844 6.554-5.18 6.096-5.577 5.703-7.102 4.197-8.561 2.615-10.177 1.214-12.941-1.181-15.874-3.236-18.959-4.984-17.642-6.717-16.27-8.411-14.822-10.052-14.48-10.439-14.136-10.826-13.793-11.213-8.674-8.171-4.05-4.461 0 0" fill="#1a1a1a"/>
</g>
</g>
</svg>
